<svg width="24" height="25" viewBox="0 0 24 25" fill="none" xmlns="http://www.w3.org/2000/svg">
<path fill-rule="evenodd" clip-rule="evenodd" d="M11.9681 9.72995C10.4576 9.72995 9.23312 10.9545 9.23312 12.465C9.23312 13.9755 10.4576 15.2 11.9681 15.2C13.4786 15.2 14.7031 13.9755 14.7031 12.465C14.7031 10.9545 13.4786 9.72995 11.9681 9.72995ZM16.1647 11.7C15.8042 9.70952 14.0625 8.19995 11.9681 8.19995C9.87378 8.19995 8.13201 9.70952 7.77154 11.7H3.46812C3.04563 11.7 2.70312 12.0425 2.70312 12.465C2.70312 12.8874 3.04563 13.23 3.46812 13.23H7.77154C8.13201 15.2204 9.87378 16.73 11.9681 16.73C14.0625 16.73 15.8042 15.2204 16.1647 13.23H20.4681C20.8906 13.23 21.2331 12.8874 21.2331 12.465C21.2331 12.0425 20.8906 11.7 20.4681 11.7H16.1647Z" fill="#777777"/>
</svg>
