<svg width="24" height="24" viewBox="0 0 24 24" fill="none" xmlns="http://www.w3.org/2000/svg">
<path d="M8.10612 3.50059C8.37579 2.38848 9.95746 2.38848 10.2271 3.50059L10.9691 6.56063C11.0654 6.95769 11.3754 7.2677 11.7725 7.36398L14.8325 8.106C15.9447 8.37567 15.9447 9.95734 14.8325 10.227L11.7725 10.969C11.3754 11.0653 11.0654 11.3753 10.9692 11.7724L10.2271 14.8324C9.95746 15.9445 8.37579 15.9445 8.10612 14.8324L7.3641 11.7724C7.26782 11.3753 6.95781 11.0653 6.56075 10.969L3.50071 10.227C2.3886 9.95734 2.3886 8.37567 3.50071 8.106L6.56075 7.36398C6.95781 7.2677 7.26782 6.95769 7.3641 6.56063L8.10612 3.50059Z" stroke="black" stroke-width="1.5"/>
<path d="M17.014 14.1798C17.18 13.4954 18.1533 13.4954 18.3192 14.1798L18.7759 16.0629C18.8351 16.3072 19.0259 16.498 19.2702 16.5573L21.1533 17.0139C21.8377 17.1798 21.8377 18.1532 21.1533 18.3191L19.2702 18.7757C19.0259 18.835 18.8351 19.0258 18.7759 19.2701L18.3192 21.1532C18.1533 21.8376 17.18 21.8376 17.014 21.1532L16.5574 19.2701C16.4981 19.0258 16.3074 18.835 16.063 18.7757L14.1799 18.3191C13.4955 18.1532 13.4955 17.1798 14.1799 17.0139L16.063 16.5573C16.3074 16.498 16.4981 16.3072 16.5574 16.0629L17.014 14.1798Z" stroke="black" stroke-width="1.5"/>
</svg>
