<svg width="24" height="24" viewBox="0 0 24 24" fill="none" xmlns="http://www.w3.org/2000/svg">
<path d="M19.5 17.8333V14.5L15.3333 10.3333L6.16667 19.5H17.8333C18.7538 19.5 19.5 18.7538 19.5 17.8333Z" fill="white"/>
<path d="M10.3333 9.08333C10.3333 9.77369 9.77369 10.3333 9.08333 10.3333C8.39298 10.3333 7.83333 9.77369 7.83333 9.08333C7.83333 8.39298 8.39298 7.83333 9.08333 7.83333C9.77369 7.83333 10.3333 8.39298 10.3333 9.08333Z" fill="white"/>
<path d="M19.5 17.8333V6.16667C19.5 5.24619 18.7538 4.5 17.8333 4.5H6.16667C5.24619 4.5 4.5 5.24619 4.5 6.16667V17.8333C4.5 18.7538 5.24619 19.5 6.16667 19.5M19.5 17.8333C19.5 18.7538 18.7538 19.5 17.8333 19.5H6.16667M19.5 17.8333V14.5L15.3333 10.3333L6.16667 19.5M10.3333 9.08333C10.3333 9.77369 9.77369 10.3333 9.08333 10.3333C8.39298 10.3333 7.83333 9.77369 7.83333 9.08333C7.83333 8.39298 8.39298 7.83333 9.08333 7.83333C9.77369 7.83333 10.3333 8.39298 10.3333 9.08333Z" stroke="current" stroke-width="1.5" stroke-linecap="round" stroke-linejoin="round"/>
</svg>
