<svg width="24" height="24" viewBox="0 0 24 24" fill="current" xmlns="http://www.w3.org/2000/svg">
<path fill-rule="evenodd" clip-rule="evenodd" d="M6.16667 5.25C5.66041 5.25 5.25 5.66041 5.25 6.16667V17.8333C5.25 18.2456 5.52209 18.5942 5.89648 18.7095L14.803 9.803C14.9437 9.66235 15.1344 9.58333 15.3333 9.58333C15.5322 9.58333 15.723 9.66235 15.8637 9.803L18.75 12.6893V6.16667C18.75 5.66041 18.3396 5.25 17.8333 5.25H6.16667ZM20.25 6.16667C20.25 4.83198 19.168 3.75 17.8333 3.75H6.16667C4.83198 3.75 3.75 4.83198 3.75 6.16667V17.8333C3.75 19.168 4.83198 20.25 6.16667 20.25H17.8333C19.168 20.25 20.25 19.168 20.25 17.8333V6.16667ZM7.08333 9.08333C7.08333 7.97876 7.97876 7.08333 9.08333 7.08333C10.1879 7.08333 11.0833 7.97876 11.0833 9.08333C11.0833 10.1879 10.1879 11.0833 9.08333 11.0833C7.97876 11.0833 7.08333 10.1879 7.08333 9.08333Z" fill="current"/>
</svg>
