<svg width="7" height="39" viewBox="0 0 7 39" fill="none" xmlns="http://www.w3.org/2000/svg">
<path opacity="0.8" d="M3.5 33.3411C2.02724 33.3411 0.833333 34.5351 0.833333 36.0078C0.833333 37.4806 2.02724 38.6745 3.5 38.6745C4.97276 38.6745 6.16667 37.4806 6.16667 36.0078C6.16667 34.5351 4.97276 33.3411 3.5 33.3411ZM3 0.0078125V1.00781H4V0.0078125L3 0.0078125ZM3 3.00781V5.00781H4V3.00781H3ZM3 7.00781L3 9.00781H4V7.00781H3ZM3 11.0078V13.0078H4V11.0078H3ZM3 15.0078V17.0078H4V15.0078H3ZM3 19.0078V21.0078H4V19.0078H3ZM3 23.0078V25.0078H4V23.0078H3ZM3 27.0078V29.0078H4V27.0078H3ZM3 31.0078V33.0078H4V31.0078H3ZM3 35.0078V36.0078H4V35.0078H3Z" fill="url(#paint0_linear_2523_8996)"/>
<defs>
<linearGradient id="paint0_linear_2523_8996" x1="3" y1="36.0078" x2="3" y2="0.0078125" gradientUnits="userSpaceOnUse">
<stop stop-color="#3FB76A"/>
<stop offset="1" stop-color="#1C512F"/>
</linearGradient>
</defs>
</svg>
