<svg width="24" height="24" viewBox="0 0 24 24" fill="none" xmlns="http://www.w3.org/2000/svg">
<path d="M10.4976 12.7547C10.8218 13.1882 11.2355 13.5469 11.7105 13.8064C12.1855 14.0659 12.7108 14.2203 13.2507 14.2589C13.7907 14.2976 14.3326 14.2197 14.8398 14.0305C15.3469 13.8413 15.8075 13.5453 16.1902 13.1624L18.4552 10.8975C19.1428 10.1855 19.5233 9.23193 19.5147 8.24215C19.5061 7.25237 19.1091 6.30557 18.4092 5.60566C17.7093 4.90575 16.7625 4.50874 15.7727 4.50014C14.7829 4.49154 13.8293 4.87204 13.1174 5.55967L11.8188 6.85071" stroke="current" stroke-width="1.5" stroke-linecap="round" stroke-linejoin="round"/>
<path d="M13.5173 11.2453C13.193 10.8118 12.7794 10.4532 12.3043 10.1936C11.8293 9.93409 11.304 9.77976 10.7641 9.74109C10.2242 9.70242 9.68223 9.78032 9.17506 9.96951C8.66789 10.1587 8.20734 10.4548 7.82465 10.8376L5.55967 13.1026C4.87204 13.8145 4.49154 14.7681 4.50014 15.7579C4.50874 16.7476 4.90575 17.6945 5.60566 18.3944C6.30557 19.0943 7.25237 19.4913 8.24215 19.4999C9.23193 19.5085 10.1855 19.128 10.8975 18.4403L12.1885 17.1493" stroke="current" stroke-width="1.5" stroke-linecap="round" stroke-linejoin="round"/>
</svg>
