<svg width="24" height="24" viewBox="0 0 24 24" fill="none" xmlns="http://www.w3.org/2000/svg">
<path d="M4.5 6.9H6.16667M6.16667 6.9H19.5M6.16667 6.9V18.8C6.16667 19.2509 6.34226 19.6833 6.65482 20.0021C6.96738 20.3209 7.39131 20.5 7.83333 20.5H16.1667C16.6087 20.5 17.0326 20.3209 17.3452 20.0021C17.6577 19.6833 17.8333 19.2509 17.8333 18.8V6.9M8.66667 6.9V5.2C8.66667 4.74913 8.84226 4.31673 9.15482 3.99792C9.46738 3.67911 9.89131 3.5 10.3333 3.5H13.6667C14.1087 3.5 14.5326 3.67911 14.8452 3.99792C15.1577 4.31673 15.3333 4.74913 15.3333 5.2V6.9M10.3333 11.15V16.25M13.6667 11.15V16.25" stroke="current" stroke-width="1.5" stroke-linecap="round" stroke-linejoin="round"/>
</svg>
